# Blender 3.6.5
# www.blender.org
mtllib Barrel.mtl
o Circle.001
v 0.000000 0.000000 -1.000000
v -0.707107 0.000000 -0.707107
v -1.000000 0.000000 0.000000
v -0.707107 0.000000 0.707107
v 0.000000 0.000000 1.000000
v 0.707107 0.000000 0.707107
v 1.000000 0.000000 0.000000
v 0.707107 0.000000 -0.707107
v -0.777817 1.000000 -0.777817
v 0.000000 1.000000 -1.100000
v -1.100000 1.000000 0.000000
v -0.777817 1.000000 0.777817
v 0.000000 1.000000 1.100000
v 0.777817 1.000000 0.777817
v 1.100000 1.000000 0.000000
v 0.777817 1.000000 -0.777817
v -0.855599 1.000000 -0.855599
v -0.000000 1.000000 -1.210000
v -1.210000 1.000000 -0.000000
v -0.855599 1.000000 0.855599
v -0.000000 1.000000 1.210000
v 0.855599 1.000000 0.855599
v 1.210000 1.000000 -0.000000
v 0.855599 1.000000 -0.855599
v -0.941159 2.000000 -0.941159
v -0.000000 2.000000 -1.331000
v -1.331000 2.000000 -0.000000
v -0.941159 2.000000 0.941159
v -0.000000 2.000000 1.331000
v 0.941159 2.000000 0.941159
v 1.331000 2.000000 -0.000000
v 0.941159 2.000000 -0.941159
v -0.847043 2.000000 -0.847043
v -0.000000 2.000000 -1.197900
v -1.197900 2.000000 -0.000000
v -0.847043 2.000000 0.847043
v -0.000000 2.000000 1.197900
v 0.847043 2.000000 0.847043
v 1.197900 2.000000 -0.000000
v 0.847043 2.000000 -0.847043
v -0.847043 3.000000 -0.847043
v -0.000000 3.000000 -1.197900
v -1.197900 3.000000 -0.000000
v -0.847043 3.000000 0.847043
v -0.000000 3.000000 1.197900
v 0.847043 3.000000 0.847043
v 1.197900 3.000000 -0.000000
v 0.847043 3.000000 -0.847043
v -0.931748 3.000000 -0.931748
v -0.000000 3.000000 -1.317690
v -1.317690 3.000000 -0.000000
v -0.931748 3.000000 0.931748
v -0.000000 3.000000 1.317690
v 0.931748 3.000000 0.931748
v 1.317690 3.000000 -0.000000
v 0.931748 3.000000 -0.931748
v -0.838573 4.000000 -0.838573
v 0.000000 4.000000 -1.185921
v -1.185921 4.000000 -0.000000
v -0.838573 4.000000 0.838573
v 0.000000 4.000000 1.185921
v 0.838573 4.000000 0.838573
v 1.185921 4.000000 -0.000000
v 0.838573 4.000000 -0.838573
v -0.754716 3.000000 -0.754716
v 0.000000 3.000000 -1.067329
v -1.067329 3.000000 -0.000000
v -0.754716 3.000000 0.754716
v 0.000000 3.000000 1.067329
v 0.754716 3.000000 0.754716
v 1.067329 3.000000 -0.000000
v 0.754716 3.000000 -0.754716
v -0.679244 3.000000 -0.679244
v 0.000000 3.000000 -0.960596
v -0.960596 3.000000 -0.000000
v -0.679244 3.000000 0.679244
v 0.000000 3.000000 0.960596
v 0.679244 3.000000 0.679244
v 0.960596 3.000000 -0.000000
v 0.679244 3.000000 -0.679244
v -0.754716 4.000000 -0.754716
v 0.000000 4.000000 -1.067329
v -1.067329 4.000000 -0.000000
v -0.754716 4.000000 0.754716
v 0.000000 4.000000 1.067329
v 0.754716 4.000000 0.754716
v 1.067329 4.000000 -0.000000
v 0.754716 4.000000 -0.754716
vn 0.5266 -0.6673 0.5266
vn -0.5266 -0.6673 0.5266
vn -0.5266 -0.6673 -0.5266
vn 0.3936 -0.8308 -0.3936
vn 0.7379 -0.6749 -0.0000
vn 0.5566 -0.8308 -0.0000
vn 0.5266 -0.6673 -0.5266
vn 0.7448 -0.6673 -0.0000
vn -0.0000 -0.8308 0.5566
vn -0.0000 -0.6673 0.7448
vn -0.5566 -0.8308 -0.0000
vn -0.7448 -0.6673 -0.0000
vn -0.0000 -0.8308 -0.5566
vn -0.0000 -0.6673 -0.7448
vn 0.3936 -0.8308 0.3936
vn -0.3936 -0.8308 0.3936
vn -0.3936 -0.8308 -0.3936
vn -0.0000 -0.6749 0.7379
vn -0.5737 0.5846 0.5737
vn -0.5218 -0.6749 0.5218
vn -0.7379 -0.6749 -0.0000
vn -0.0000 -0.6749 -0.7379
vn 0.5218 -0.6749 -0.5218
vn 0.5218 -0.6749 0.5218
vn -0.5218 -0.6749 -0.5218
vn -0.0000 0.5846 -0.8113
vn 0.4203 0.8042 -0.4203
vn 0.5737 0.5846 -0.5737
vn -0.5737 0.5846 -0.5737
vn 0.8113 0.5846 -0.0000
vn -0.0000 0.5846 0.8113
vn -0.8113 0.5846 -0.0000
vn 0.5737 0.5846 0.5737
vn 0.4203 0.8042 0.4203
vn -0.0000 -0.8042 0.5944
vn -0.0000 0.8042 0.5944
vn -0.4203 0.8042 0.4203
vn -0.4203 0.8042 -0.4203
vn 0.5944 0.8042 -0.0000
vn -0.5944 0.8042 -0.0000
vn -0.0000 0.8042 -0.5944
vn 0.5944 -0.8042 -0.0000
vn 0.5758 -0.5805 -0.5758
vn 0.8143 -0.5805 -0.0000
vn -0.5944 -0.8042 -0.0000
vn -0.0000 -0.8042 -0.5944
vn 0.4203 -0.8042 -0.4203
vn 0.4203 -0.8042 0.4203
vn -0.4203 -0.8042 0.4203
vn -0.4203 -0.8042 -0.4203
vn 0.5193 0.6788 0.5193
vn 0.5758 -0.5805 0.5758
vn -0.0000 -0.5805 0.8143
vn -0.5758 -0.5805 0.5758
vn -0.8143 -0.5805 -0.0000
vn -0.5758 -0.5805 -0.5758
vn -0.0000 -0.5805 -0.8143
vn -0.5193 0.6788 0.5193
vn -0.5193 0.6788 -0.5193
vn 0.7343 0.6788 -0.0000
vn -0.0000 0.6788 0.7343
vn -0.7343 0.6788 -0.0000
vn -0.0000 0.6788 -0.7343
vn 0.5193 0.6788 -0.5193
vn -0.0000 1.0000 -0.0000
vt 0.300000 0.603553
vt 0.158579 0.750000
vt 0.100000 0.396447
vt 0.125000 0.890625
vt 0.000000 0.968750
vt 0.000000 0.890625
vt 0.125000 0.625000
vt 0.000000 0.750000
vt 0.000000 0.625000
vt 0.125000 0.968750
vt 0.000000 0.000000
vt 1.000000 1.000000
vt 0.000000 1.000000
vt 1.000000 0.000000
vt 0.300025 0.603540
vt 0.158622 0.749968
vt 0.100051 0.396460
vt 0.158579 0.250000
vt 0.241421 0.250000
vt 0.300000 0.396447
vt 0.241421 0.750000
vt 0.100000 0.603553
vt 0.125000 0.750000
vt 0.158622 0.250032
vt 0.241454 0.250032
vt 0.300025 0.396460
vt 0.241454 0.749968
vt 0.100051 0.603540
s 1
usemtl Material.002
f 6/1/1 4/2/2 2/3/3
f 16/4/4 23/5/5 15/6/6
f 8/7/7 15/8/6 7/9/8
f 6/7/1 13/8/9 5/9/10
f 4/7/2 11/8/11 3/9/12
f 2/7/3 10/8/13 1/9/14
f 1/7/14 16/8/4 8/9/7
f 7/7/8 14/8/15 6/9/1
f 5/7/10 12/8/16 4/9/2
f 3/7/12 9/8/17 2/9/3
f 21/4/18 28/5/19 20/6/20
f 14/4/15 21/5/18 13/6/9
f 12/4/16 19/5/21 11/6/11
f 9/4/17 18/5/22 10/6/13
f 10/4/13 24/5/23 16/6/4
f 15/4/6 22/5/24 14/6/15
f 13/4/9 20/5/20 12/6/16
f 11/4/11 17/5/25 9/6/17
f 26/4/26 40/5/27 32/6/28
f 19/4/21 25/5/29 17/6/25
f 24/4/23 31/5/30 23/6/5
f 22/4/24 29/5/31 21/6/18
f 20/4/20 27/5/32 19/6/21
f 17/4/25 26/5/26 18/6/22
f 18/4/22 32/5/28 24/6/23
f 23/4/5 30/5/33 22/6/24
f 38/7/34 45/8/35 37/9/36
f 31/4/30 38/5/34 30/6/33
f 29/4/31 36/5/37 28/6/19
f 27/4/32 33/5/38 25/6/29
f 31/6/30 40/10/27 39/5/39
f 29/6/31 38/10/34 37/5/36
f 27/6/32 36/10/37 35/5/40
f 26/6/26 33/10/38 34/5/41
f 47/6/42 56/10/43 55/5/44
f 36/7/37 43/8/45 35/9/40
f 33/7/38 42/8/46 34/9/41
f 34/7/41 48/8/47 40/9/27
f 39/7/39 46/8/48 38/9/34
f 37/7/36 44/8/49 36/9/37
f 35/7/40 41/8/50 33/9/38
f 40/7/27 47/8/42 39/9/39
f 55/4/44 62/5/51 54/6/52
f 45/6/35 54/10/52 53/5/53
f 43/6/45 52/10/54 51/5/55
f 42/6/46 49/10/56 50/5/57
f 42/4/46 56/5/43 48/6/47
f 47/4/42 54/5/52 46/6/48
f 45/4/35 52/5/54 44/6/49
f 43/4/45 49/5/56 41/6/50
f 53/4/53 60/5/58 52/6/54
f 51/4/55 57/5/59 49/6/56
f 56/4/43 63/5/60 55/6/44
f 54/4/52 61/5/61 53/6/53
f 52/4/54 59/5/62 51/6/55
f 49/4/56 58/5/63 50/6/57
f 50/4/57 64/5/64 56/6/43
f 65/11/65 75/12/65 73/13/65
f 72/14/65 79/13/65 71/11/65
f 70/14/65 77/13/65 69/11/65
f 68/14/65 75/13/65 67/11/65
f 65/14/65 74/13/65 66/11/65
f 72/11/65 74/12/65 80/13/65
f 70/11/65 79/12/65 78/13/65
f 68/11/65 77/12/65 76/13/65
f 58/4/63 88/5/65 64/6/64
f 85/15/65 87/16/65 82/17/65
f 63/4/60 86/5/65 62/6/51
f 61/4/61 84/5/65 60/6/58
f 59/4/62 81/5/65 57/6/59
f 63/6/60 88/10/65 87/5/65
f 61/6/61 86/10/65 85/5/65
f 59/6/62 84/10/65 83/5/65
f 58/6/63 81/10/65 82/5/65
f 2/3/3 1/18/14 8/19/7
f 8/19/7 7/20/8 6/1/1
f 6/1/1 5/21/10 4/2/2
f 4/2/2 3/22/12 2/3/3
f 2/3/3 8/19/7 6/1/1
f 16/4/4 24/10/23 23/5/5
f 8/7/7 16/23/4 15/8/6
f 6/7/1 14/23/15 13/8/9
f 4/7/2 12/23/16 11/8/11
f 2/7/3 9/23/17 10/8/13
f 1/7/14 10/23/13 16/8/4
f 7/7/8 15/23/6 14/8/15
f 5/7/10 13/23/9 12/8/16
f 3/7/12 11/23/11 9/8/17
f 21/4/18 29/10/31 28/5/19
f 14/4/15 22/10/24 21/5/18
f 12/4/16 20/10/20 19/5/21
f 9/4/17 17/10/25 18/5/22
f 10/4/13 18/10/22 24/5/23
f 15/4/6 23/10/5 22/5/24
f 13/4/9 21/10/18 20/5/20
f 11/4/11 19/10/21 17/5/25
f 26/4/26 34/10/41 40/5/27
f 19/4/21 27/10/32 25/5/29
f 24/4/23 32/10/28 31/5/30
f 22/4/24 30/10/33 29/5/31
f 20/4/20 28/10/19 27/5/32
f 17/4/25 25/10/29 26/5/26
f 18/4/22 26/10/26 32/5/28
f 23/4/5 31/10/30 30/5/33
f 38/7/34 46/23/48 45/8/35
f 31/4/30 39/10/39 38/5/34
f 29/4/31 37/10/36 36/5/37
f 27/4/32 35/10/40 33/5/38
f 31/6/30 32/4/28 40/10/27
f 29/6/31 30/4/33 38/10/34
f 27/6/32 28/4/19 36/10/37
f 26/6/26 25/4/29 33/10/38
f 47/6/42 48/4/47 56/10/43
f 36/7/37 44/23/49 43/8/45
f 33/7/38 41/23/50 42/8/46
f 34/7/41 42/23/46 48/8/47
f 39/7/39 47/23/42 46/8/48
f 37/7/36 45/23/35 44/8/49
f 35/7/40 43/23/45 41/8/50
f 40/7/27 48/23/47 47/8/42
f 55/4/44 63/10/60 62/5/51
f 45/6/35 46/4/48 54/10/52
f 43/6/45 44/4/49 52/10/54
f 42/6/46 41/4/50 49/10/56
f 42/4/46 50/10/57 56/5/43
f 47/4/42 55/10/44 54/5/52
f 45/4/35 53/10/53 52/5/54
f 43/4/45 51/10/55 49/5/56
f 53/4/53 61/10/61 60/5/58
f 51/4/55 59/10/62 57/5/59
f 56/4/43 64/10/64 63/5/60
f 54/4/52 62/10/51 61/5/61
f 52/4/54 60/10/58 59/5/62
f 49/4/56 57/10/59 58/5/63
f 50/4/57 58/10/63 64/5/64
f 65/11/65 67/14/65 75/12/65
f 72/14/65 80/12/65 79/13/65
f 70/14/65 78/12/65 77/13/65
f 68/14/65 76/12/65 75/13/65
f 65/14/65 73/12/65 74/13/65
f 72/11/65 66/14/65 74/12/65
f 70/11/65 71/14/65 79/12/65
f 68/11/65 69/14/65 77/12/65
f 58/4/63 82/10/65 88/5/65
f 82/17/65 81/24/65 83/25/65
f 83/25/65 84/26/65 85/15/65
f 85/15/65 86/27/65 87/16/65
f 87/16/65 88/28/65 82/17/65
f 82/17/65 83/25/65 85/15/65
f 63/4/60 87/10/65 86/5/65
f 61/4/61 85/10/65 84/5/65
f 59/4/62 83/10/65 81/5/65
f 63/6/60 64/4/64 88/10/65
f 61/6/61 62/4/51 86/10/65
f 59/6/62 60/4/58 84/10/65
f 58/6/63 57/4/59 81/10/65
